<svg width="34" height="36" viewBox="0 0 34 36" fill="none" xmlns="http://www.w3.org/2000/svg">
<g id="person_24px">
<path id="icon/social/person_24px" d="M17.4191 20.9326C21.11 20.9326 28.4786 22.8485 28.4786 26.6523V29.5127H6.36047V26.6523C6.36047 22.8486 13.7281 20.9327 17.4191 20.9326ZM17.4191 23.792C13.7006 23.7921 9.44306 25.6228 9.12512 26.6523H25.714C25.4375 25.637 21.1514 23.792 17.4191 23.792ZM17.4191 6.63184C20.474 6.63184 22.9482 9.19138 22.9484 12.3516C22.9484 15.5119 20.4741 18.0723 17.4191 18.0723C14.3642 18.0721 11.8898 15.5118 11.8898 12.3516C11.89 9.19148 14.3643 6.63201 17.4191 6.63184ZM17.4191 9.49219C15.8987 9.49236 14.6546 10.7788 14.6544 12.3516C14.6544 13.9245 15.8986 15.2117 17.4191 15.2119C18.9397 15.2119 20.1837 13.9246 20.1837 12.3516C20.1835 10.7787 18.9395 9.49219 17.4191 9.49219Z" fill="black" fill-opacity="0.44"/>
</g>
</svg>
